PathFileType	4	(X/Y/Z)	/home/abdul/Documents/myosuite/MHH/MHH/IK/original/output/S5_12_1.trc
DataRate	CameraRate	NumFrames	NumMarkers	Units	OrigDataRate	OrigDataStartFrame	OrigNumFrames
200.0	200.0	45	3	mm	200.0	1	1267
Frame#	Time	V_Shoulder			V_Elbow			V_Wrist		
		X1	Y1	Z1	X2	Y2	Z2	X3	Y3	Z3

1	0.0	-5.4000627816946825	722.3398850078996	248.65089315786636	-155.8413824672325	568.4594643109157	18.810728304992114	-117.36127515385576	337.60496257822786	23.71624873172226
2	0.005	-5.398689677240661	722.3233264696959	248.63187139432443	-155.84759722500152	568.4619414460274	18.81095057974831	-117.42335418416835	337.57484441009876	23.646236183195615
3	0.01	-5.397654625010179	722.3064855274146	248.61372061502937	-155.8561550470302	568.4653847233624	18.812804902240845	-117.48576545506597	337.5474440107695	23.58481724905802
4	0.015	-5.396981117579686	722.2894101722344	248.5965198168253	-155.86716477185902	568.4698341579715	18.81639572651064	-117.54822141366701	337.52304481060355	23.532767707638804
5	0.02	-5.3966926624744405	722.2721515584404	248.58034742732184	-155.88073255306796	568.4753277179859	18.821827842053747	-117.6104157515311	337.5019345776872	23.490872555667146
6	0.025	-5.396812714698187	722.2547639576734	248.5652810283218	-155.8969614028868	568.4819010506217	18.829206099545235	-117.67202341594714	337.48440460262117	23.459923891112908
7	0.03	-5.397364607839154	722.2373046991055	248.5513970765935	-155.91595073055072	568.4895872019558	18.838635129320444	-117.73270068082607	337.47074883451626	23.44071869396967
8	0.035	-5.3983714839905685	722.2198340951478	248.53877062312142	-155.93779587704745	568.4984163312427	18.850219053507196	-117.7920852791722	337.4612629695276	23.434056509764456
9	0.04	-5.399856222728874	722.2024153523402	248.52747503198802	-155.96258764797363	568.5084154206197	18.86406119273867	-117.84979659893708	337.4562434935443	23.440737041187667
10	0.045	-5.401841369396383	722.1851144671181	248.51758170004916	-155.9904118462892	568.5196079811287	18.8802637684082	-117.90543594387324	337.4559866809521	23.461557653848473
11	0.05	-5.404349062937293	722.1680001062235	248.5091597785738	-156.02134880681655	568.5320137560525	18.89892760145396	-117.95858686080695	337.4607875516833	23.497310802772294
12	0.055	-5.407400963536844	722.1511434715684	248.50227589801844	-156.05547293438897	568.54564842265	18.920151808683407	-118.00881553453395	337.4709387890806	23.54878138686365
13	0.06	-5.411018180313122	722.1346181494349	248.49699389710466	-156.09285224759975	568.5605232934456	18.944033497664414	-118.0556712513183	337.4867296214073	23.616744039156004
14	0.065	-5.415221199309684	722.1184999439623	248.49337455735724	-156.13354793014483	568.5766450183073	18.970667461222373	-118.09868693173478	337.50844467014963	23.701960361256162
15	0.07	-5.420029812034795	722.102866694932	248.49147534424802	-156.17761389178435	568.5940152886171	19.000145872590092	-118.1373797333477	337.5363627685657	23.80517611095954
16	0.075	-5.4254630447899075	722.087798079947	248.4913501560728	-156.22509634097185	568.6126305449145	19.032557982259892	-118.17125172345982	337.5707557542439	23.927118352560555
17	0.08	-5.431539089025887	722.0733754011686	248.49304908166505	-156.27603337121613	568.6324816894546	19.067989817585303	-118.19979062189779	337.6118872397346	24.068492579904557
18	0.085	-5.438275232960741	722.0596813568573	248.49661816802418	-156.33045456324606	568.6535538051912	19.106523886172752	-118.22247061352613	337.660011365614	24.2299798227199
19	0.09	-5.445687794687146	722.0467997980369	248.50209919890315	-156.38838060504327	568.6758258827483	19.14823888409181	-118.2387532299002	337.71537154062474	24.412233747226505
20	0.095	-5.453792056991965	722.0348154706944	248.50952948536678	-156.44982293179507	568.6992705570015	19.193209409916165	-118.24808829918388	337.77819917380845	24.615877762435833
21	0.1	-5.4626022041033755	722.023813743996	248.51894166929242	-156.51478338779242	568.7238538549339	19.241505685586116	-118.24991496316822	337.84871240380744	24.841502143932626
22	0.105	-5.472131260574057	722.0138803250967	248.5303635407394	-156.583253912263	568.7495349564736	19.29319328505766	-118.2436627599368	337.92711483075163	25.089661187256638
23	0.11	-5.482391032501398	722.0051009611954	248.54381787007	-156.65521625108036	568.7762659700494	19.34833287167274	-118.22875277043288	338.0135942563692	25.360870403278543
24	0.115	-5.493392051277723	721.9975611295763	248.5593222556505	-156.73064169623257	568.8039917246283	19.406979945150674	-118.20459882689437	338.1083214381611	25.65560376818501
25	0.12	-5.505143520055239	721.9913457164616	248.5768889879097	-156.80949085486156	568.8326495800109	19.46918459906198	-118.17060878083579	338.21144886365255	25.97429104084906
26	0.125	-5.5176532631018285	721.9865386855778	248.5965249304726	-156.89171344960278	568.8621692571664	19.53499128960317	-118.12618582797535	338.3231095508837	26.31731516046092
27	0.13	-5.530927678214927	721.983222737426	248.61823141902667	-156.9772481518613	568.892472690387	19.604438616444707	-118.07072988722932	338.4434158814222	26.685009737327746
28	0.135	-5.544971692351652	721.9814789603221	248.6420041785149	-157.06602244955414	568.9234739030164	19.677559116374965	-118.00363903062879	338.5724584722627	27.077656649716037
29	0.14	-5.559788720623984	721.9813864743519	248.66783325918212	-157.15795255073323	568.9550789084929	19.75437907041058	-117.92431096075461	338.71030509303444	27.495483759505305
30	0.145	-5.575380628798327	721.9830220694603	248.69570299193182	-157.25294332437562	568.9871856383917	19.8349183249887	-117.83214453203944	338.8569996349497	27.938662759244835
31	0.15	-5.591747699429102	721.9864598389657	248.72559196337852	-157.35088827949087	569.019683899113	19.919190127799702	-117.72654131204905	339.012561137906	28.407307162954915
32	0.155	-5.608888601746158	721.9917708098588	248.75747301090732	-157.4516695835478	569.0524553587845	20.007200978760483	-117.60690717863244	339.1769828820893	28.90147045268985
33	0.16	-5.626800365405896	721.9990225713053	248.79131323797333	-157.55515812106665	569.0853735658745	20.098950496568875	-117.47265394862157	339.3502315503213	29.42114439248175
34	0.165	-5.645478358205859	722.0082789028351	248.82707404979928	-157.6612135930576	569.1183040009148	20.194431301219648	-117.32320103356697	339.5322464672438	29.96625752081195
35	0.17	-5.664916267852365	722.0195994037546	248.86471120954513	-157.76968465781582	569.151104162627	20.293628912802333	-117.15797711781823	339.7229389212421	30.536673832211964
36	0.175	-5.685106087860443	722.0330391253602	248.90417491494782	-157.8804091134023	569.1836236896207	20.396521666841558	-116.97642185409518	339.92219157477257	31.132191657979348
37	0.18	-5.706038107654924	722.0486482075768	248.9454098953422	-157.99321412195744	569.2157045187006	20.50308064638192	-116.77798757155136	340.12985796847545	31.752542755307786
38	0.185	-5.727700906930994	722.0664715216839	248.9883555288961	-158.1079164758043	569.2471810806653	20.613269630962467	-116.56214099120271	340.34576212413174	32.39739161337742
39	0.19	-5.7500813543218685	722.0865483208104	249.03294597980576	-158.22432290510733	569.2778805343207	20.727045062570898	-116.32836494348277	340.56969825114817	33.06633498413433
40	0.195	-5.7731646104105465	722.108911899908	249.0791103551187	-158.34223042665715	569.3076230392498	20.844356028615397	-116.07616008259171	340.80143056084745	33.758901644609736
41	0.2	-5.796934135111639	722.13358926692	249.12677288076574	-158.4614267331579	569.3362220676983	20.965144261902537	-115.80504659222905	341.04069319238323	34.474552396694556
42	0.205	-5.8213716994383615	722.1606008268677	249.17585309630363	-158.58169062219827	569.3634847557244	21.08934415756422	-115.51456587723811	341.28719025361096	35.21268030929702
43	0.21	-5.84645740165858	722.1899600805735	249.22626606779076	-158.70279246389418	569.3892122935613	21.21688280683447	-115.20428223564649	341.5405959797154	35.97261120677526
44	0.215	-5.8721696878325504	722.221673339723	249.27792261813622	-158.82449470600216	569.4132003549075	21.347680047539423	-114.87378450555642	341.8005550118364	36.753604406457484
45	0.22	-5.898485376713623	722.2557394599471	249.33072957418952	-158.94655241511475	569.435239564639	21.481648531130517	-114.52268768132608	342.0666827973431	37.554853706945266
